<svg viewBox="0 0 192 192" xmlns="http://www.w3.org/2000/svg" xmlns:xlink="http://www.w3.org/1999/xlink"><linearGradient id="a" x1="50%" x2="50%" y1="0%" y2="100%"><stop offset="0" stop-color="#00bfff"/><stop offset="1" stop-color="#006afe"/></linearGradient><path d="m60.891974 39.1799869c25.5314471-25.5441145 72.65598-43.32984464 93.05119-38.33882649.624477.14906159 1.106372.64633849 1.236179 1.27563731 4.909894 21.42791868-12.758759 67.54255628-38.370296 93.04833188-4.529751 4.5599608-9.447791 8.7162674-14.698342 12.4217794.675546 7.842033.076609 15.684066-2.8484343 22.400331-8.2841398 18.949836-30.0652638 24.467142-39.4010262 25.965842-1.0375659.175234-2.0972348-.146106-2.8631697-.868242-.7659349-.722137-1.1496905-1.761684-1.0368877-2.8088l3.335942-30.392234c-2.2794176-.022686-4.5562173-.161116-6.8216182-.414756-1.5815463-.154855-3.0594576-.857499-4.178633-1.986648l-11.7732982-11.756079c-1.1295853-1.119154-1.8318575-2.598961-1.9848506-4.182417-.2543647-2.280198-.3926704-4.5718712-.4143811-6.8661354l-30.40303662 3.3563904c-1.04653901.114398-2.08608035-.269241-2.80792612-1.0362547-.72184576-.7670137-1.04237524-1.8285493-.86578865-2.8673353 1.5356476-9.3616444 7.04796085-31.1241564 25.98065009-39.4645939 6.710188-2.9276922 14.5834289-3.5097453 22.4566697-2.8126757 3.7019181-5.2426009 7.8533123-10.1522835 12.4070576-14.6733145zm-34.4990749 66.8341541c.6560584-.089441 1.2955944.251631 1.5869074.846317.2913131.594685.1688407 1.309145-.3038959 1.772819-1.05453 1.054686-2.7488082 5.544131-3.3217695 8.74686-1.5009478 8.448032 5.8772473 15.669113 14.2326402 14.245288 3.7189759-.643359 6.8087489-1.395701 8.7350237-3.325776 1.0123488-1.058201 2.8015348-.182812 2.6714761 1.286717-.5621814 4.679707-2.6832187 9.033862-6.0213665 12.360915-8.2640003 8.272252-38.9719146 9.052719-38.9719146 9.052719s.78035222-30.694868 9.0443525-38.967119c3.3292749-3.328283 7.6761344-5.446963 12.3485466-6.01874zm76.6788919-69.8393072c-6.761394 0-12.8568118 4.0772397-15.4432616 10.3300351s-1.1544171 13.4493848 3.6281771 18.2331739c3.132001 3.1393229 7.3825964 4.9033536 11.8150845 4.9033536 4.432488 0 8.683084-1.7640307 11.815085-4.9033536 4.782594-4.7837891 6.214626-11.9803785 3.628177-18.2331739-2.58645-6.2527954-8.681868-10.3300351-15.443262-10.3300351z" fill="url(#a)" transform="translate(18 18)"/></svg>